<?xml version="1.0" encoding="UTF-8"?> <svg xmlns="http://www.w3.org/2000/svg" xmlns:xlink="http://www.w3.org/1999/xlink" version="1.1" x="0px" y="0px" viewBox="0 0 270.43 270.43" style="enable-background:new 0 0 270.43 270.43;" xml:space="preserve"> <style type="text/css"> .st0{fill-rule:evenodd;clip-rule:evenodd;fill:url(#SVGID_1_);stroke:#005E9E;stroke-width:0.3164;stroke-miterlimit:3.8637;} .st1{fill-rule:evenodd;clip-rule:evenodd;fill:#ED1C24;} .st2{fill-rule:evenodd;clip-rule:evenodd;fill:none;} .st3{fill-rule:evenodd;clip-rule:evenodd;fill:none;stroke:#FFFFFF;stroke-width:1.2;stroke-linecap:round;stroke-miterlimit:3.8637;} .st4{fill-rule:evenodd;clip-rule:evenodd;fill:#FFDD00;stroke:#FFDD00;stroke-width:1.125;stroke-miterlimit:3.8637;} .st5{fill-rule:evenodd;clip-rule:evenodd;fill:none;stroke:#FFFFFF;stroke-width:1.3125;stroke-linecap:round;stroke-linejoin:round;stroke-miterlimit:3.8637;} .st6{fill-rule:evenodd;clip-rule:evenodd;fill:#FFFFFF;} .st7{fill:#FFFFFF;} .st8{fill-rule:evenodd;clip-rule:evenodd;fill:#F2F6F8;} .st9{fill-rule:evenodd;clip-rule:evenodd;fill:#E9F0F3;} .st10{fill-rule:evenodd;clip-rule:evenodd;fill:#E1EAEF;} .st11{fill-rule:evenodd;clip-rule:evenodd;fill:#DAE5EB;} .st12{fill-rule:evenodd;clip-rule:evenodd;fill:#CBDAE3;} .st13{fill-rule:evenodd;clip-rule:evenodd;fill:#BDD0DB;} .st14{fill-rule:evenodd;clip-rule:evenodd;fill:#B6CBD7;} .st15{fill-rule:evenodd;clip-rule:evenodd;fill:#AFC6D2;} .st16{fill-rule:evenodd;clip-rule:evenodd;fill:none;stroke:#FFFFFF;stroke-width:0.1875;stroke-miterlimit:3.8637;} .st17{fill-rule:evenodd;clip-rule:evenodd;fill:#FFE4B8;} .st18{fill:#FAD400;} .st19{fill:#F4CC07;} .st20{fill:#EEC40F;} .st21{fill:#E9BD13;} .st22{fill:#E4B716;} .st23{fill:#DFB019;} .st24{fill:#DAAA1B;} .st25{fill:#D5A31C;} .st26{fill:#FFDD00;} .st27{fill-rule:evenodd;clip-rule:evenodd;fill:none;stroke:#FFFFFF;stroke-width:1.125;stroke-linecap:round;stroke-linejoin:round;stroke-miterlimit:3.8637;} </style> <g id="Background"> </g> <g id="Guides"> </g> <g id="Foreground"> <linearGradient id="SVGID_1_" gradientUnits="userSpaceOnUse" x1="1827.1575" y1="-1547.394" x2="1827.1575" y2="-1349.4978" gradientTransform="matrix(1 0 0 1 -1692 1584)"> <stop offset="0" style="stop-color:#005E9E"></stop> <stop offset="1" style="stop-color:#004071"></stop> </linearGradient> <path class="st0" d="M36.27,132.09c1.9-54.61,47.72-97.33,102.33-95.42c54.61,1.91,97.34,47.74,95.44,102.35 c-1.9,54.61-47.72,97.33-102.33,95.42C77.1,232.53,34.37,186.7,36.27,132.09z"></path> <g> <path class="st1" d="M71.62,117.44c0,0-20.82,7.07-20.86,7c-0.04-0.07,2,1.08,2,1.08s14.66-4.46,17.21-5.08 C69.97,120.44,70.5,118.86,71.62,117.44z"></path> <path class="st2" d="M70.27,120.45"></path> <path class="st2" d="M72.5,120.66"></path> </g> <path class="st3" d="M59.04,152.25c-6.93-3.39-10.82-7.14-10.65-10.94c0.2-4.69,5.52-9.85,19.15-12.18"></path> <path class="st4" d="M65.26,139.4c0-25.19,20.42-45.62,45.62-45.62c25.19,0,45.62,20.42,45.62,45.62 c0,25.2-20.42,45.62-45.62,45.62C85.69,185.01,65.26,164.59,65.26,139.4z"></path> <path class="st5" d="M208.77,138.57c6.29,3.26,9.78,6.82,9.62,10.43c-0.51,11.67-38.98,19.47-85.93,17.42 c-31.66-1.38-59.08-6.89-73.44-13.92"></path> <path class="st3" d="M208.52,138.32c6.29,3.26,9.78,6.82,9.62,10.43c-0.51,11.67-38.98,19.47-85.93,17.42 c-31.66-1.38-59.08-6.89-73.44-13.92"></path> <g> <path class="st1" d="M118.7,243.7l-4.99-1.34l-0.11,0.41c1.48,0.49,1.9,0.99,1.28,3.3l-1.56,5.81c-0.47,1.74-0.87,2.4-1.28,2.79 c-0.89,0.84-2.31,1.2-3.98,0.75c-3.74-1-2.94-3.99-2.57-5.37l1.84-6.88c0.41-1.53,0.74-1.74,2.48-1.41l0.11-0.41l-6.09-1.63 l-0.11,0.41c1.61,0.55,1.84,0.86,1.42,2.45l-1.8,6.71c-0.35,1.29-1.47,5.49,3.87,6.92c5.57,1.49,6.66-2.55,7.12-4.27l1.5-5.62 c0.6-2.26,1.06-2.48,2.76-2.21L118.7,243.7z"></path> <path class="st1" d="M117.41,258.13c0.46,0.07,1.29-0.18,1.42-0.99c0.11-0.68-0.37-1.34-1.03-1.45c-0.66-0.1-1.3,0.36-1.41,1.06 C116.25,257.59,116.94,258.06,117.41,258.13z"></path> <path class="st1" d="M135.4,244.39l-0.47-0.02c-0.06,0.24-0.2,0.75-0.82,0.71c-0.56-0.03-1.72-0.85-3.05-0.92 c-2-0.11-4.09,1.03-4.22,3.57c-0.12,2.2,1.26,3.25,3.24,4.54c3.17,2.09,3.49,2.86,3.42,4.13c-0.06,1.2-1.02,2.42-2.8,2.33 c-3-0.16-3.99-3.11-4.35-4.18l-0.51-0.03l0.42,4.75l0.49,0.03c0.02-0.36,0.26-0.72,0.73-0.7c0.67,0.04,1.72,0.85,3.41,0.94 c3.18,0.17,4.81-1.89,4.9-3.78c0.24-4.56-7.17-5.39-6.99-8.73c0.07-1.38,1.24-2.01,2.36-1.95c2.33,0.12,3.65,2.2,3.94,4.04 l0.56,0.03L135.4,244.39z"></path> <path class="st1" d="M139.2,259.68c0.47-0.02,1.23-0.42,1.21-1.25c-0.02-0.69-0.62-1.25-1.29-1.23c-0.67,0.02-1.21,0.6-1.18,1.31 C137.96,259.37,138.73,259.7,139.2,259.68z"></path> <path class="st1" d="M160.79,256.86c-0.98,0.07-1.32-0.13-2.25-1.64l-7.25-11.76l-0.44,0.06L147.78,255 c-0.28,1.03-0.74,2.74-1.17,3.36c-0.34,0.48-0.71,0.57-1.06,0.64l0.06,0.42l4.37-0.61l-0.06-0.42c-0.46,0.06-1.5,0.21-1.63-0.72 c-0.03-0.24-0.01-0.56,0.06-0.86l0.65-2.72l5.78-0.81l1.2,1.99c0.18,0.29,0.57,0.98,0.62,1.33c0.11,0.82-0.61,0.94-1.43,1.05 l0.06,0.42l5.62-0.79L160.79,256.86z M149.25,253.13l1.68-6.42l3.41,5.71L149.25,253.13z"></path> <path class="st1" d="M163.32,256.86c0.45-0.11,1.12-0.67,0.92-1.47c-0.17-0.67-0.87-1.09-1.52-0.93 c-0.65,0.16-1.05,0.84-0.88,1.53C162.05,256.81,162.87,256.97,163.32,256.86z"></path> </g> <g> <g> <path class="st6" d="M84.55,60.9c0-0.27,0.22-0.49,0.49-0.49c0.27,0,0.49,0.22,0.49,0.49c0,0.27-0.22,0.49-0.49,0.49 C84.78,61.4,84.55,61.17,84.55,60.9z"></path> <path class="st6" d="M78.18,63.02c0-0.38,0.31-0.68,0.68-0.68c0.38,0,0.68,0.31,0.68,0.68c0,0.38-0.31,0.68-0.68,0.68 C78.49,63.7,78.18,63.39,78.18,63.02z"></path> <path class="st6" d="M85.48,76.92c0-0.29,0.24-0.53,0.53-0.53c0.29,0,0.53,0.24,0.53,0.53c0,0.29-0.24,0.53-0.53,0.53 C85.71,77.45,85.48,77.21,85.48,76.92z"></path> <path class="st6" d="M82.77,79.06c0-0.36,0.29-0.65,0.65-0.65c0.36,0,0.65,0.29,0.65,0.65c0,0.36-0.29,0.65-0.65,0.65 C83.06,79.71,82.77,79.42,82.77,79.06z"></path> <path class="st6" d="M87.47,82.87c0-0.57,0.46-1.03,1.03-1.03c0.57,0,1.03,0.46,1.03,1.03c0,0.57-0.46,1.03-1.03,1.03 C87.93,83.9,87.47,83.44,87.47,82.87z"></path> <path class="st6" d="M81.41,84.1c0-0.31,0.25-0.57,0.57-0.57c0.31,0,0.57,0.25,0.57,0.57c0,0.31-0.25,0.57-0.57,0.57 C81.66,84.67,81.41,84.41,81.41,84.1z"></path> <path class="st6" d="M79.26,86.63c0-0.48,0.39-0.88,0.88-0.88c0.48,0,0.88,0.39,0.88,0.88c0,0.48-0.39,0.88-0.88,0.88 C79.65,87.51,79.26,87.12,79.26,86.63z"></path> <path class="st6" d="M85.4,92.97c0-0.38,0.31-0.68,0.68-0.68c0.38,0,0.68,0.31,0.68,0.68c0,0.38-0.31,0.68-0.68,0.68 C85.71,93.65,85.4,93.35,85.4,92.97z"></path> <path class="st6" d="M82.71,95.69c0-0.44,0.35-0.79,0.79-0.79c0.44,0,0.79,0.35,0.79,0.79c0,0.44-0.35,0.79-0.79,0.79 C83.07,96.48,82.71,96.12,82.71,95.69z"></path> <path class="st6" d="M65.2,90.01c0-0.4,0.32-0.72,0.72-0.72c0.4,0,0.72,0.32,0.72,0.72c0,0.4-0.32,0.72-0.72,0.72 C65.52,90.73,65.2,90.41,65.2,90.01z"></path> <polygon class="st7" points="76.7,90.38 76.25,88.64 74.51,88.19 76.25,87.75 76.7,86 77.14,87.75 78.89,88.19 77.14,88.64 "></polygon> <polygon class="st7" points="95.17,94.44 94.73,92.69 92.99,92.25 94.73,91.8 95.17,90.06 95.62,91.8 97.36,92.25 95.62,92.69 "></polygon> </g> <g> <polygon class="st7" points="213.7,107.22 213.25,105.47 211.51,105.03 213.25,104.58 213.7,102.84 214.14,104.58 215.89,105.03 214.14,105.47 "></polygon> <polygon class="st7" points="215.44,123.64 215,121.9 213.25,121.45 215,121.01 215.44,119.26 215.89,121.01 217.63,121.45 215.89,121.9 "></polygon> <polygon class="st7" points="207.26,112.33 206.81,110.58 205.07,110.14 206.81,109.7 207.26,107.95 207.7,109.7 209.45,110.14 207.7,110.58 "></polygon> <path class="st6" d="M189.46,90.97c0-0.42,0.34-0.76,0.76-0.76c0.42,0,0.76,0.34,0.76,0.76c0,0.42-0.34,0.76-0.76,0.76 C189.8,91.73,189.46,91.39,189.46,90.97z"></path> <path class="st6" d="M203.43,107.63c0-0.34,0.27-0.61,0.61-0.61c0.34,0,0.61,0.27,0.61,0.61c0,0.34-0.27,0.61-0.61,0.61 C203.71,108.24,203.43,107.97,203.43,107.63z"></path> <path class="st6" d="M210.02,108.39c0-0.34,0.27-0.61,0.61-0.61c0.34,0,0.61,0.27,0.61,0.61c0,0.34-0.27,0.61-0.61,0.61 C210.29,109,210.02,108.73,210.02,108.39z"></path> <path class="st6" d="M204.11,118.84c0-0.34,0.27-0.61,0.61-0.61c0.34,0,0.61,0.27,0.61,0.61c0,0.34-0.27,0.61-0.61,0.61 C204.38,119.45,204.11,119.17,204.11,118.84z"></path> <path class="st6" d="M208.26,121.6c0-0.34,0.27-0.61,0.61-0.61c0.34,0,0.61,0.27,0.61,0.61c0,0.34-0.27,0.61-0.61,0.61 C208.53,122.21,208.26,121.94,208.26,121.6z"></path> <path class="st6" d="M209.99,114.84c0-0.2,0.16-0.36,0.36-0.36c0.2,0,0.36,0.16,0.36,0.36c0,0.2-0.16,0.36-0.36,0.36 C210.15,115.2,209.99,115.04,209.99,114.84z"></path> <path class="st6" d="M220.56,111.9c0-0.53,0.43-0.95,0.96-0.95s0.96,0.43,0.96,0.95c0,0.53-0.43,0.96-0.96,0.96 S220.56,112.42,220.56,111.9z"></path> <path class="st6" d="M207.2,115.85c0-0.29,0.24-0.53,0.53-0.53c0.29,0,0.53,0.24,0.53,0.53c0,0.29-0.24,0.53-0.53,0.53 C207.43,116.37,207.2,116.14,207.2,115.85z"></path> </g> <g> <polygon class="st7" points="177.88,193.9 177.39,191.96 175.44,191.46 177.39,190.97 177.88,189.03 178.37,190.97 180.32,191.46 178.37,191.96 "></polygon> <polygon class="st7" points="162.21,202.19 161.72,200.25 159.78,199.76 161.72,199.26 162.21,197.32 162.71,199.26 164.65,199.76 162.71,200.25 "></polygon> <polygon class="st7" points="174.35,205.11 173.85,203.17 171.91,202.68 173.85,202.18 174.35,200.24 174.84,202.18 176.78,202.68 174.84,203.17 "></polygon> <path class="st6" d="M158.41,159.73c0-0.37,0.3-0.66,0.66-0.66c0.37,0,0.66,0.3,0.66,0.66c0,0.37-0.3,0.66-0.66,0.66 C158.7,160.39,158.41,160.1,158.41,159.73z"></path> <path class="st6" d="M161.33,173.47c0-0.36,0.29-0.65,0.65-0.65c0.36,0,0.65,0.29,0.65,0.65c0,0.36-0.29,0.65-0.65,0.65 C161.62,174.12,161.33,173.83,161.33,173.47z"></path> <circle class="st6" cx="169.32" cy="171.52" r="0.7"></circle> <path class="st6" d="M153.07,203.2c0-0.43,0.35-0.78,0.79-0.78c0.43,0,0.78,0.35,0.78,0.78c0,0.43-0.35,0.79-0.78,0.79 C153.43,203.99,153.07,203.64,153.07,203.2z"></path> <path class="st6" d="M158.91,206.58c0-0.39,0.32-0.71,0.71-0.71c0.39,0,0.71,0.32,0.71,0.71c0,0.39-0.32,0.71-0.71,0.71 C159.23,207.29,158.91,206.97,158.91,206.58z"></path> <path class="st6" d="M155.53,207.75c0-0.36,0.29-0.64,0.64-0.64c0.36,0,0.64,0.29,0.64,0.64s-0.29,0.64-0.64,0.64 C155.82,208.39,155.53,208.1,155.53,207.75z"></path> <path class="st6" d="M150.23,212.63c0-0.33,0.28-0.61,0.63-0.61c0.35,0,0.63,0.27,0.63,0.61c0,0.33-0.28,0.61-0.63,0.61 C150.52,213.23,150.23,212.96,150.23,212.63z"></path> <path class="st6" d="M146.78,211.61c0-0.29,0.23-0.52,0.52-0.52c0.29,0,0.52,0.23,0.52,0.52c0,0.29-0.23,0.52-0.52,0.52 C147.01,212.13,146.78,211.9,146.78,211.61z"></path> <path class="st6" d="M166.21,211.05c0-0.4,0.32-0.72,0.72-0.72c0.4,0,0.72,0.32,0.72,0.72c0,0.4-0.32,0.72-0.72,0.72 C166.53,211.77,166.21,211.45,166.21,211.05z"></path> <path class="st6" d="M167.13,207.13c0-0.31,0.25-0.57,0.57-0.57c0.31,0,0.57,0.25,0.57,0.57c0,0.31-0.25,0.57-0.57,0.57 C167.38,207.7,167.13,207.45,167.13,207.13z"></path> <path class="st6" d="M180.8,206.05c0-0.39,0.32-0.71,0.71-0.71c0.39,0,0.71,0.32,0.71,0.71c0,0.39-0.32,0.71-0.71,0.71 C181.12,206.75,180.8,206.44,180.8,206.05z"></path> <path class="st6" d="M183.18,198.92c0-0.27,0.22-0.49,0.49-0.49c0.27,0,0.49,0.22,0.49,0.49c0,0.27-0.22,0.49-0.49,0.49 C183.4,199.41,183.18,199.19,183.18,198.92z"></path> <path class="st6" d="M185.48,197c0-0.44,0.36-0.8,0.8-0.8s0.8,0.36,0.8,0.8c0,0.44-0.36,0.8-0.8,0.8S185.48,197.44,185.48,197z"></path> <path class="st6" d="M185.18,205.29c0-0.27,0.22-0.49,0.49-0.49c0.27,0,0.49,0.22,0.49,0.49c0,0.27-0.22,0.49-0.49,0.49 C185.4,205.78,185.18,205.56,185.18,205.29z"></path> </g> <g> <polygon class="st7" points="68.11,185.36 67.62,183.42 65.68,182.92 67.62,182.43 68.11,180.48 68.61,182.43 70.55,182.92 68.61,183.42 "></polygon> <path class="st6" d="M59.96,175.56c0-0.36,0.29-0.66,0.66-0.66c0.36,0,0.66,0.29,0.66,0.66c0,0.36-0.29,0.66-0.66,0.66 C60.25,176.21,59.96,175.92,59.96,175.56z"></path> <path class="st6" d="M56.81,177.86c0-0.36,0.29-0.66,0.66-0.66c0.36,0,0.66,0.29,0.66,0.66c0,0.36-0.29,0.66-0.66,0.66 C57.1,178.52,56.81,178.22,56.81,177.86z"></path> <path class="st6" d="M75.85,181.59c0-0.34,0.28-0.62,0.62-0.62c0.34,0,0.62,0.28,0.62,0.62c0,0.34-0.28,0.62-0.62,0.62 C76.13,182.2,75.85,181.93,75.85,181.59z"></path> <path class="st6" d="M78.93,185.2c0-0.38,0.31-0.69,0.69-0.69c0.38,0,0.7,0.31,0.7,0.69s-0.31,0.69-0.7,0.69 C79.24,185.89,78.93,185.58,78.93,185.2z"></path> <path class="st6" d="M73.7,188.81c0-0.34,0.28-0.62,0.62-0.62c0.34,0,0.62,0.28,0.62,0.62c0,0.34-0.28,0.62-0.62,0.62 C73.98,189.42,73.7,189.15,73.7,188.81z"></path> <path class="st6" d="M77.16,191.42c0-0.34,0.28-0.62,0.62-0.62c0.34,0,0.62,0.28,0.62,0.62c0,0.34-0.28,0.62-0.62,0.62 C77.44,192.03,77.16,191.76,77.16,191.42z"></path> <path class="st6" d="M78.31,195.68c0-0.36,0.29-0.66,0.66-0.66c0.36,0,0.66,0.29,0.66,0.66s-0.29,0.66-0.66,0.66 C78.61,196.33,78.31,196.04,78.31,195.68z"></path> <path class="st6" d="M72.4,191.84c0-0.45,0.36-0.81,0.81-0.81c0.45,0,0.81,0.36,0.81,0.81c0,0.45-0.36,0.81-0.81,0.81 C72.76,192.65,72.4,192.29,72.4,191.84z"></path> </g> </g> <path class="st6" d="M181.23,108.88c0-5.71,4.63-10.34,10.34-10.34c5.71,0,10.34,4.63,10.34,10.34c0,5.71-4.63,10.34-10.34,10.34 C185.86,119.23,181.23,114.6,181.23,108.88z"></path> <path class="st8" d="M198.67,101.35c0.03,0.34,0.04,0.69,0.04,1.03c0,6.91-5.6,12.52-12.52,12.52c-1.27,0-2.49-0.19-3.65-0.54 c1.9,2.27,4.72,3.75,7.91,3.75c5.71,0,10.34-4.63,10.34-10.34C200.8,105.37,200.05,103.11,198.67,101.35z"></path> <path class="st9" d="M198.8,101.47c0.03,0.34,0.04,0.69,0.04,1.03c0,6.91-5.6,12.52-12.52,12.52c-1.27,0-2.49-0.19-3.65-0.54 c1.9,2.27,4.72,3.75,7.91,3.75c5.71,0,10.34-4.63,10.34-10.34C200.93,105.49,200.17,103.23,198.8,101.47z"></path> <path class="st10" d="M198.95,101.57c0.03,0.34,0.04,0.69,0.04,1.03c0,6.91-5.6,12.52-12.52,12.52c-1.27,0-2.49-0.19-3.65-0.54 c1.9,2.27,4.71,3.75,7.91,3.75c5.71,0,10.34-4.63,10.34-10.34C201.07,105.58,200.32,103.32,198.95,101.57z"></path> <path class="st11" d="M199.05,101.72c0.03,0.34,0.04,0.69,0.04,1.03c0,6.91-5.6,12.52-12.52,12.52c-1.27,0-2.49-0.19-3.65-0.54 c1.9,2.27,4.72,3.75,7.91,3.75c5.71,0,10.34-4.63,10.34-10.34C201.17,105.74,200.42,103.48,199.05,101.72z"></path> <path class="st12" d="M199.3,101.97c0.03,0.34,0.04,0.69,0.04,1.03c0,6.91-5.6,12.52-12.52,12.52c-1.27,0-2.49-0.19-3.65-0.54 c1.9,2.27,4.71,3.75,7.91,3.75c5.71,0,10.34-4.63,10.34-10.34C201.42,105.99,200.67,103.73,199.3,101.97z"></path> <path class="st13" d="M199.42,102.1c0.03,0.34,0.04,0.69,0.04,1.03c0,6.91-5.6,12.52-12.52,12.52c-1.27,0-2.49-0.19-3.65-0.54 c1.9,2.27,4.72,3.75,7.91,3.75c5.71,0,10.34-4.63,10.34-10.34C201.55,106.11,200.79,103.85,199.42,102.1z"></path> <path class="st13" d="M199.54,102.22c0.03,0.34,0.04,0.69,0.04,1.03c0,6.91-5.6,12.52-12.52,12.52c-1.27,0-2.49-0.19-3.65-0.54 c1.9,2.27,4.72,3.75,7.91,3.75c5.71,0,10.34-4.63,10.34-10.34C201.67,106.24,200.92,103.98,199.54,102.22z"></path> <path class="st14" d="M199.67,102.36c0.03,0.34,0.04,0.69,0.04,1.03c0,6.91-5.6,12.52-12.52,12.52c-1.27,0-2.49-0.19-3.65-0.54 c1.9,2.27,4.72,3.75,7.91,3.75c5.71,0,10.34-4.63,10.34-10.34C201.8,106.38,201.04,104.12,199.67,102.36z"></path> <path class="st15" d="M199.79,102.47c0.03,0.34,0.04,0.69,0.04,1.03c0,6.91-5.6,12.52-12.52,12.52c-1.27,0-2.49-0.19-3.65-0.54 c1.9,2.27,4.72,3.75,7.91,3.75c5.71,0,10.34-4.63,10.34-10.34C201.92,106.48,201.17,104.22,199.79,102.47z"></path> <path class="st16" d="M181.23,108.88c0-5.71,4.63-10.34,10.34-10.34c5.71,0,10.34,4.63,10.34,10.34c0,5.71-4.63,10.34-10.34,10.34 C185.86,119.23,181.23,114.6,181.23,108.88z"></path> <g> <path class="st1" d="M25.29,123.21c-0.12,0.98-0.38,1.27-2.04,1.9l-12.92,4.88l-0.02,0.44l10.68,5.2 c0.96,0.47,2.54,1.25,3.07,1.79c0.4,0.42,0.43,0.8,0.43,1.16l0.42,0.02l0.23-4.4l-0.42-0.02c-0.03,0.47-0.08,1.51-1.01,1.46 c-0.25-0.01-0.55-0.1-0.84-0.22l-2.55-1.16l0.31-5.83l2.18-0.8c0.32-0.12,1.07-0.37,1.42-0.35c0.82,0.04,0.81,0.78,0.76,1.6 l0.42,0.02l0.3-5.67L25.29,123.21z M19.42,133.83l-5.98-2.88l6.25-2.26L19.42,133.83z"></path> <path class="st1" d="M24.17,109.49l-0.1,0.62c2.07,1.32,2.55,2.52,2.12,5.27c-0.52,3.28-0.54,3.27-1.44,3.13l-5.46-0.86l0.58-3.38 c0.31-1.82,0.67-2.1,2.47-2.09l0.08-0.51l-5.1-0.81l-0.08,0.51c1.52,0.49,2.02,0.79,1.71,2.75l-0.54,3.39l-4.88-0.77 c-0.75-0.12-0.71-0.38-0.63-0.84l0.47-2.97c0.39-2.44,0.83-2.96,2.84-2.98l0.09-0.55l-3.16-0.43l-1.85,11.68l0.42,0.07 c0.33-1.37,0.54-1.88,2.28-1.6l9.77,1.55c1.69,0.27,1.81,0.81,1.68,2.23l0.42,0.07l1.88-11.88L24.17,109.49z"></path> <path class="st1" d="M32.02,95.84c-0.33,0.85-0.87,1.24-1.59,1.52l-6.78,2.62c0.14-1.15,0.53-4.07-2.31-4.99 c-3.26-1.06-4.84,2.29-5.46,4.18l-1.9,5.85l0.4,0.13c0.63-1.44,0.92-1.69,2.49-1.18l9.17,2.98c1.59,0.52,2.01,0.75,1.55,2.5 l0.4,0.13l1.91-5.87l-0.4-0.13c-0.63,1.67-1.11,1.75-2.53,1.29l-4.17-1.36l0.34-1.2l8.16-2.92l1.11-3.41L32.02,95.84z M16.82,101.55c-0.61-0.2-0.7-0.44-0.34-1.56c0.28-0.87,1.25-3.62,4.07-2.71c3.03,0.98,2.04,4.18,1.48,5.96L16.82,101.55z"></path> <path class="st1" d="M35.6,89.69c1.64-3.68,0.3-7.84-4.04-9.77c-4.68-2.08-8.52,0.18-10,3.52c-1.49,3.34-0.6,7.7,4.08,9.79 C29.97,95.16,33.96,93.37,35.6,89.69z M34.87,89.36c-1.01,2.26-3.74,3.53-8.22,1.53c-4.64-2.07-5.28-5.06-4.36-7.13 c0.92-2.08,3.58-3.6,8.22-1.53C34.98,84.22,35.87,87.1,34.87,89.36z"></path> <path class="st1" d="M34.47,61.33l-2.77,4.44l0.36,0.22c0.9-1.23,1.38-1.66,3.55-0.3l6.31,3.94l-0.02,0.04l-13.61,1.56l-2.02,3.23 l0.36,0.22c0.47-0.76,0.75-1,2.18-1.18l8.33,5.21c2.04,1.27,2.08,1.85,1.27,3.34l0.36,0.22l2.77-4.44l-0.36-0.22 c-0.92,1.34-1.58,1.48-3.53,0.26l-7.37-4.6l0.02-0.04l15.55-1.84l0.2-0.32l-9.94-6.21c-2.21-1.38-1.91-2.03-1.3-3.31L34.47,61.33z "></path> <path class="st1" d="M56.53,57.5c-0.68,0.71-1.07,0.79-2.77,0.29L40.49,53.9l-0.29,0.34l5.4,10.58c0.48,0.95,1.28,2.53,1.38,3.28 c0.07,0.58-0.14,0.9-0.35,1.19l0.32,0.27l2.84-3.38l-0.32-0.27c-0.3,0.36-0.97,1.16-1.69,0.56c-0.19-0.16-0.38-0.41-0.53-0.68 l-1.34-2.46l3.75-4.47l2.22,0.67c0.33,0.1,1.07,0.35,1.35,0.58c0.63,0.53,0.18,1.11-0.35,1.74l0.32,0.27l3.65-4.35L56.53,57.5z M45.45,62.45l-3.05-5.9l6.35,1.96L45.45,62.45z"></path> <path class="st1" d="M57.98,37.16l-3.84,3.46l0.28,0.31c1.22-0.98,1.87-1.05,3.46,0.72l4.02,4.47c1.21,1.34,1.53,2.04,1.65,2.59 c0.22,1.21-0.25,2.59-1.54,3.75c-2.88,2.59-4.95,0.29-5.91-0.77l-4.77-5.3c-1.06-1.18-1.05-1.57,0.17-2.85l-0.28-0.31l-4.68,4.22 l0.28,0.31c1.33-1.05,1.73-1.08,2.83,0.15l4.65,5.16c0.89,0.99,3.8,4.22,7.91,0.53c4.29-3.86,1.48-6.97,0.29-8.3L58.62,41 c-1.56-1.74-1.51-2.24-0.35-3.52L57.98,37.16z"></path> <path class="st1" d="M76.29,42.26c-1.61,0.96-2.06,0.75-2.88-0.52l-6.2-9.55l1.01-0.65c2.05-1.33,2.8-1.34,4.52,0.46l0.45-0.29 l-2.17-3.1l-10.54,6.84l1.95,3.25l0.45-0.29c-0.91-2.3-0.64-2.99,1.42-4.32l1.01-0.66l6.07,9.34c0.9,1.38,1.12,1.85-0.53,3.03 l0.23,0.35l5.46-3.54L76.29,42.26z"></path> <path class="st1" d="M79.53,40.62l5.84-3.11l-0.2-0.37c-1.48,0.73-2.05,0.79-2.87-0.75l-4.64-8.73c-0.84-1.57-0.42-1.97,0.99-2.79 l-0.2-0.37l-5.84,3.11l0.2,0.37c1.67-0.79,2.08-0.7,2.85,0.76l4.64,8.73c0.74,1.4,0.68,1.86-0.97,2.78L79.53,40.62z"></path> <path class="st1" d="M94.4,22.72l-2.06-4.57l-0.43,0.18c0.11,0.75-0.57,1.02-0.67,1.07c-0.46,0.18-2.07,0.04-3.91,0.79 c-3.55,1.44-6.01,5.34-4.14,9.96c2.08,5.14,6.45,5.68,9.78,4.34c3.8-1.54,4.53-4.83,4.54-4.88l-0.52-0.22 c-0.39,0.88-1.28,2.95-3.82,3.97c-2.6,1.05-5.79,0.25-7.55-4.13c-1.2-2.97-0.83-4.66-0.34-5.77c0.53-1.2,1.56-2.09,2.59-2.51 c2.54-1.03,4.69,0.02,6.09,1.98L94.4,22.72z"></path> <path class="st1" d="M103.93,14.46l-0.45,0.14c0.03,0.25,0.07,0.77-0.52,0.95c-0.53,0.16-1.9-0.21-3.18,0.18 c-1.92,0.59-3.49,2.37-2.75,4.8c0.65,2.11,2.29,2.63,4.6,3.16c3.69,0.87,4.25,1.49,4.62,2.71c0.35,1.15-0.13,2.62-1.83,3.15 c-2.88,0.88-4.81-1.56-5.52-2.44l-0.49,0.15l2.02,4.32l0.47-0.14c-0.1-0.34,0-0.77,0.45-0.91c0.64-0.2,1.9,0.21,3.52-0.29 c3.05-0.93,3.87-3.42,3.32-5.23c-1.33-4.37-8.58-2.62-9.56-5.81c-0.4-1.32,0.48-2.31,1.55-2.64c2.24-0.68,4.19,0.82,5.08,2.45 l0.53-0.16L103.93,14.46z"></path> </g> <g> <path class="st1" d="M134.95,25.2c-0.98,0-1.31-0.22-2.13-1.79l-6.42-12.23l-0.44,0.03l-3.86,11.23c-0.35,1.01-0.93,2.68-1.4,3.27 c-0.37,0.45-0.75,0.52-1.1,0.57l0.03,0.42l4.4-0.31L124,25.97c-0.47,0.03-1.51,0.11-1.58-0.83c-0.02-0.24,0.03-0.56,0.12-0.86 l0.84-2.67l5.82-0.41l1.06,2.07c0.16,0.3,0.5,1.01,0.52,1.37c0.06,0.82-0.67,0.9-1.5,0.95l0.03,0.42l5.67-0.4L134.95,25.2z M123.69,20.68l2.13-6.29l3,5.93L123.69,20.68z"></path> <path class="st1" d="M152.29,12.02l-5.22-0.37l-0.03,0.42c1.5,0.22,2.11,0.44,1.93,2.99l-0.52,7.42l-0.04,0l-7.76-11.28l-3.8-0.27 l-0.03,0.42c0.89,0.06,1.24,0.2,2.07,1.37l-0.68,9.8c-0.17,2.4-0.66,2.7-2.35,2.69l-0.03,0.42l5.22,0.37l0.03-0.42 c-1.62-0.18-2.05-0.7-1.89-2.99l0.61-8.67l0.04,0l8.92,12.86l0.38,0.03l0.82-11.69c0.18-2.6,0.9-2.64,2.31-2.7L152.29,12.02z"></path> <path class="st1" d="M152.18,27.03l6.16,1.42c6.64,1.53,9.34-2.32,10-5.21c1.12-4.86-1.78-8.02-6.99-9.23l-5.86-1.35l-0.09,0.41 c1.64,0.52,1.83,0.79,1.46,2.39l-2.22,9.64c-0.35,1.52-0.69,1.81-2.36,1.51L152.18,27.03z M159.24,15.27 c0.1-0.43,0.2-0.85,1.21-0.61c2.73,0.63,3.82,1.5,4.64,2.67c1.19,1.69,1.3,3.57,0.88,5.39c-1.46,6.32-6.8,5.08-8.19,4.76 c-1.04-0.24-1.27-0.45-1.1-1.19L159.24,15.27z"></path> </g> <g> <path class="st1" d="M192.83,25.17l-0.42-0.2c-0.15,0.2-0.47,0.61-1.03,0.34c-0.5-0.24-1.25-1.45-2.45-2.04 c-1.8-0.88-4.17-0.65-5.28,1.64c-0.97,1.98-0.11,3.49,1.21,5.45c2.1,3.16,2.09,3.99,1.54,5.13c-0.53,1.08-1.88,1.83-3.49,1.05 c-2.7-1.32-2.45-4.42-2.38-5.54l-0.46-0.22l-1.47,4.54l0.44,0.21c0.16-0.32,0.52-0.56,0.94-0.36c0.6,0.29,1.25,1.45,2.77,2.19 c2.86,1.4,5.16,0.14,5.99-1.56c2-4.1-4.49-7.77-3.03-10.77c0.6-1.24,1.93-1.36,2.93-0.88c2.1,1.03,2.5,3.45,2.04,5.26l0.5,0.24 L192.83,25.17z"></path> <path class="st1" d="M195.99,27.78c1.3,0.99,1.36,1.35,0.52,2.69l-5.11,8.18c-0.85,1.36-1.12,1.79-2.78,0.92l-0.22,0.36l5.29,3.31 l0.22-0.36c-1.43-0.95-1.58-1.43-0.71-2.81l2.15-3.44c0.43,0.32,0.78,0.56,1.23,0.85c1.98,1.24,3.41,1.65,4.7,1.39 c0.51-0.1,1.83-0.36,2.75-1.83c1.5-2.4-0.22-4.86-2.83-6.49l-4.99-3.12L195.99,27.78z M198.89,30.96 c0.39-0.62,0.61-0.51,1.18-0.16c0.83,0.52,3.57,2.28,1.88,4.98c-1.79,2.87-4.33,1.29-5.02,0.85c-0.4-0.25-0.76-0.5-1.1-0.77 L198.89,30.96z"></path> <path class="st1" d="M209.24,54.59c-0.71-0.68-0.79-1.07-0.29-2.77l3.88-13.26l-0.34-0.29l-10.58,5.4 c-0.95,0.48-2.53,1.28-3.28,1.38c-0.58,0.07-0.9-0.14-1.19-0.35l-0.27,0.32l3.38,2.84l0.27-0.32c-0.36-0.3-1.16-0.97-0.56-1.69 c0.16-0.19,0.41-0.38,0.68-0.53l2.46-1.34l4.47,3.75l-0.67,2.23c-0.1,0.32-0.35,1.07-0.58,1.35c-0.53,0.63-1.11,0.18-1.74-0.35 l-0.27,0.32l4.35,3.65L209.24,54.59z M204.29,43.51l5.9-3.05l-1.96,6.35L204.29,43.51z"></path> <path class="st1" d="M225.21,56.94l3.4-3.69l-0.33-0.33c-0.65,0.39-1.17-0.13-1.25-0.21c-0.35-0.35-0.85-1.89-2.25-3.29 c-2.71-2.71-7.26-3.45-10.79,0.08c-3.92,3.92-2.71,8.16-0.17,10.69c2.9,2.9,6.22,2.28,6.27,2.27V61.9 c-0.96-0.02-3.21-0.03-5.15-1.97c-1.98-1.98-2.49-5.23,0.85-8.57c2.27-2.27,3.97-2.58,5.18-2.57c1.31,0.02,2.54,0.61,3.32,1.4 c1.94,1.94,1.81,4.33,0.55,6.38L225.21,56.94z"></path> <path class="st1" d="M229.42,73.37l-0.37-0.5c-2.4,0.53-3.59,0.02-5.23-2.23c-1.95-2.69-1.93-2.7-1.19-3.24l4.47-3.25l1.98,2.8 c1.07,1.51,1.01,1.96-0.27,3.23l0.3,0.41l4.18-3.04l-0.3-0.41c-1.42,0.73-1.99,0.87-3.15-0.74l-2.02-2.78l4-2.91 c0.61-0.45,0.77-0.23,1.04,0.15l1.77,2.43c1.45,2,1.5,2.68,0.1,4.11l0.33,0.45l2.54-1.93l-6.95-9.57l-0.34,0.25 c0.73,1.2,0.94,1.71-0.48,2.75l-8,5.81c-1.39,1.01-1.85,0.71-2.76-0.39l-0.34,0.25l7.07,9.73L229.42,73.37z"></path> </g> <g> <path class="st1" d="M238.75,99.3c-0.34-0.92-0.24-1.31,0.96-2.62l9.3-10.21l-0.18-0.41l-11.88,0.22 c-1.07,0.01-2.83,0.04-3.55-0.2c-0.55-0.19-0.74-0.52-0.91-0.84l-0.39,0.17l1.79,4.03l0.39-0.17c-0.19-0.43-0.62-1.38,0.24-1.76 c0.22-0.1,0.54-0.17,0.85-0.18l2.8-0.12l2.37,5.33l-1.58,1.7c-0.23,0.25-0.78,0.81-1.11,0.96c-0.75,0.33-1.07-0.33-1.41-1.08 l-0.39,0.17l2.31,5.19L238.75,99.3z M239.15,87.18l6.64-0.15l-4.54,4.85L239.15,87.18z"></path> <path class="st1" d="M238.17,99.59l1.74,6.08c1.88,6.55,6.56,7.04,9.41,6.22c4.8-1.38,6.15-5.45,4.68-10.59l-1.66-5.78l-0.41,0.12 c0.34,1.69,0.2,1.98-1.39,2.44l-9.51,2.73c-1.5,0.43-1.91,0.27-2.47-1.33L238.17,99.59z M251.89,100.06 c0.43-0.12,0.84-0.24,1.12,0.77c0.77,2.7,0.54,4.06-0.09,5.35c-0.9,1.86-2.49,2.87-4.29,3.38c-6.23,1.79-7.74-3.48-8.13-4.85 c-0.29-1.03-0.22-1.33,0.51-1.54L251.89,100.06z"></path> <path class="st1" d="M259.14,131.41l-0.54-4.4l-11.76-3.52l10.54-6.48l-0.54-4.38l-0.42,0.05c0.11,1.65-0.01,2.13-1.73,2.34 l-8.98,1.1c-2.39,0.29-2.78-0.13-3.09-1.8l-0.42,0.05l0.64,5.2l0.42-0.05c-0.13-1.62,0.3-2.15,2.57-2.43l8.82-1.08l0.01,0.04 l-11.4,6.99l0.04,0.31l13.27,4.07l0,0.04l-9.93,1.22c-1.81,0.22-2.18-0.02-2.48-1.74l-0.42,0.05l0.76,6.19l0.42-0.05 c-0.09-1.43,0.05-1.96,1.75-2.17l9.82-1.21c1.75-0.21,1.94,0.3,2.23,1.68L259.14,131.41z"></path> <path class="st1" d="M244.03,133.53l-0.12,6.61l0.42,0.01c0.07-1.65,0.31-2.18,2.04-2.15l9.89,0.17c1.78,0.03,1.93,0.59,1.97,2.22 l0.42,0.01l0.12-6.61l-0.42-0.01c-0.12,1.85-0.39,2.15-2.04,2.12l-9.89-0.17c-1.58-0.03-1.96-0.3-1.97-2.2L244.03,133.53z"></path> <path class="st1" d="M256.96,157.29l0.64-5.2l-0.42-0.05c-0.29,1.49-0.55,2.09-3.09,1.77l-7.38-0.91l0.01-0.04l11.67-7.16 l0.46-3.78l-0.42-0.05c-0.11,0.88-0.26,1.22-1.48,2l-9.75-1.2c-2.39-0.29-2.66-0.8-2.57-2.49l-0.42-0.05l-0.64,5.2l0.42,0.05 c0.26-1.61,0.81-2.01,3.08-1.73l8.62,1.06l-0.01,0.04l-13.31,8.24l-0.05,0.38l11.63,1.43c2.59,0.32,2.59,1.04,2.57,2.45 L256.96,157.29z"></path> <path class="st1" d="M242.16,155.45l-1.49,6.45l0.41,0.1c0.41-1.6,0.75-2.07,2.44-1.68l9.64,2.22c1.74,0.4,1.76,0.98,1.46,2.58 l0.41,0.09l1.49-6.45l-0.41-0.09c-0.5,1.78-0.83,2.02-2.44,1.65l-9.64-2.23c-1.54-0.36-1.85-0.7-1.47-2.56L242.16,155.45z"></path> <path class="st1" d="M252.56,175.19l0.13-0.45c-0.22-0.11-0.68-0.36-0.51-0.96c0.15-0.54,1.21-1.48,1.58-2.77 c0.55-1.93-0.09-4.22-2.53-4.92c-2.12-0.61-3.46,0.49-5.15,2.14c-2.74,2.62-3.57,2.75-4.79,2.4c-1.16-0.33-2.13-1.54-1.64-3.25 c0.83-2.89,3.92-3.18,5.05-3.3l0.14-0.49l-4.72-0.66l-0.13,0.47c0.34,0.1,0.64,0.42,0.52,0.87c-0.18,0.64-1.21,1.48-1.68,3.11 c-0.88,3.06,0.76,5.11,2.58,5.63c4.39,1.26,6.87-5.77,10.08-4.85c1.33,0.38,1.68,1.66,1.37,2.73c-0.64,2.25-2.96,3.07-4.82,2.93 l-0.15,0.54L252.56,175.19z"></path> <path class="st1" d="M233.93,182.15c0.82-1.68,1.32-1.75,2.7-1.14l10.4,4.63l-0.49,1.1c-1,2.24-1.62,2.65-4.05,2.08l-0.22,0.49 l3.51,1.42l5.11-11.48l-3.41-1.66l-0.22,0.49c2.02,1.44,2.16,2.16,1.16,4.4l-0.49,1.1l-10.17-4.53c-1.51-0.67-1.95-0.94-1.2-2.83 l-0.39-0.17l-2.65,5.94L233.93,182.15z"></path> <path class="st1" d="M225.43,197.43c0.5-0.77,1.11-1.03,1.88-1.15l7.17-1.16c-0.38,1.1-1.36,3.87,1.22,5.36 c2.97,1.71,5.21-1.23,6.21-2.95l3.07-5.32l-0.37-0.21c-0.91,1.27-1.25,1.46-2.68,0.64l-8.35-4.82c-1.45-0.84-1.81-1.15-1-2.76 l-0.37-0.21l-3.08,5.34l0.37,0.21c0.97-1.5,1.45-1.48,2.74-0.73l3.8,2.19l-0.58,1.1l-8.59,1.16l-1.79,3.11L225.43,197.43z M241.49,195c0.56,0.32,0.59,0.57,0,1.6c-0.46,0.79-1.97,3.28-4.54,1.8c-2.76-1.59-1.13-4.51-0.21-6.14L241.49,195z"></path> <path class="st1" d="M215.9,209.44c0.66-0.73,1.04-0.83,2.76-0.39l13.38,3.42l0.27-0.35l-5.77-10.38 c-0.51-0.94-1.37-2.48-1.49-3.23c-0.09-0.58,0.11-0.9,0.31-1.2l-0.33-0.26l-2.71,3.48l0.33,0.26c0.29-0.37,0.93-1.19,1.67-0.62 c0.19,0.15,0.4,0.4,0.56,0.66l1.42,2.41l-3.59,4.6l-2.25-0.6c-0.33-0.09-1.09-0.31-1.37-0.53c-0.65-0.51-0.21-1.1,0.29-1.75 l-0.33-0.26l-3.5,4.48L215.9,209.44z M226.8,204.11l3.25,5.79l-6.42-1.74L226.8,204.11z"></path> <path class="st1" d="M210.68,214.5c1.35-1.3,1.84-1.2,2.93-0.14l8.19,7.91l-0.84,0.87c-1.7,1.76-2.42,1.93-4.51,0.57l-0.37,0.38 l2.82,2.53l8.73-9.04l-2.63-2.73l-0.37,0.38c1.41,2.04,1.29,2.77-0.41,4.53l-0.84,0.87l-8.01-7.74c-1.19-1.14-1.51-1.55-0.16-3.07 l-0.3-0.29l-4.52,4.68L210.68,214.5z"></path> <path class="st1" d="M208,216.34l-5.07,4.25l0.27,0.32c1.29-1.03,1.84-1.2,2.96,0.13l6.36,7.58c1.15,1.37,0.82,1.84-0.38,2.94 l0.27,0.32l5.07-4.25l-0.27-0.32c-1.47,1.12-1.88,1.12-2.94-0.15l-6.36-7.58c-1.02-1.21-1.06-1.67,0.37-2.92L208,216.34z"></path> <path class="st1" d="M196.53,224.87c-3.3,2.31-4.29,6.57-1.57,10.46c2.94,4.2,7.4,4.23,10.39,2.14c2.99-2.1,4.48-6.29,1.55-10.49 C204.18,223.08,199.84,222.55,196.53,224.87z M196.99,225.52c2.03-1.42,5.02-1.1,7.84,2.92c2.91,4.16,1.92,7.06,0.06,8.36 c-1.86,1.3-4.92,1.24-7.83-2.92C194.25,229.87,194.97,226.94,196.99,225.52z"></path> <path class="st1" d="M183.35,249.61l4.66-2.38l-0.19-0.38c-1.4,0.59-2.04,0.71-3.2-1.57l-3.38-6.63l0.04-0.02l12.47,5.67 l3.39-1.73l-0.19-0.38c-0.79,0.41-1.16,0.47-2.48-0.11l-4.46-8.75c-1.09-2.14-0.83-2.65,0.63-3.52l-0.19-0.38l-4.66,2.38 l0.19,0.38c1.48-0.68,2.12-0.45,3.16,1.59l3.94,7.74l-0.04,0.02l-14.28-6.43l-0.34,0.17l5.32,10.44c1.18,2.32,0.59,2.73-0.59,3.5 L183.35,249.61z"></path> </g> <g> <path class="st1" d="M56.97,212.92c1.35,1.3,1.26,1.79,0.25,2.92l-7.62,8.46l-0.89-0.8c-1.82-1.64-2.02-2.35-0.72-4.49l-0.4-0.36 l-2.43,2.9l9.34,8.41l2.63-2.72l-0.4-0.36c-1.99,1.48-2.72,1.39-4.54-0.25l-0.89-0.8l7.45-8.28c1.1-1.22,1.5-1.56,3.06-0.27 l0.28-0.31l-4.83-4.35L56.97,212.92z"></path> <g> <path class="st1" d="M68.51,240.57l4.62,2.46l0.2-0.37c-1.29-0.81-1.75-1.26-0.55-3.52l3.49-6.57l0.04,0.02l2.5,13.46l3.36,1.79 l0.2-0.37c-0.79-0.42-1.05-0.68-1.33-2.1l4.61-8.67c1.13-2.12,1.7-2.2,3.25-1.5l0.2-0.37l-4.62-2.46l-0.2,0.37 c1.4,0.82,1.59,1.47,0.51,3.5l-4.08,7.67l-0.04-0.02l-2.92-15.38l-0.33-0.18l-5.5,10.34c-1.22,2.3-1.89,2.04-3.21,1.52 L68.51,240.57z"></path> <path class="st1" d="M62.84,218.42c0.74,0.64,0.84,1.03,0.43,2.75l-3.18,13.44l0.36,0.27l10.28-5.95 c0.93-0.53,2.46-1.41,3.2-1.55c0.58-0.1,0.9,0.1,1.2,0.29l0.25-0.34l-3.52-2.65l-0.25,0.34c0.37,0.28,1.21,0.91,0.65,1.66 c-0.15,0.2-0.39,0.4-0.65,0.57l-2.39,1.46l-4.66-3.51l0.56-2.26c0.08-0.33,0.29-1.09,0.51-1.38c0.5-0.66,1.1-0.23,1.75,0.26 l0.25-0.34l-4.54-3.42L62.84,218.42z M68.36,229.22l-5.73,3.35l1.62-6.45L68.36,229.22z"></path> <path class="st1" d="M54.45,209.56l-4.43-4.92l-0.31,0.28c1.07,1.25,1.26,1.8-0.03,2.96l-7.35,6.62 c-1.32,1.19-1.81,0.88-2.95-0.28l-0.31,0.28l4.43,4.92l0.31-0.28c-1.17-1.43-1.18-1.84,0.04-2.95l7.35-6.62 c1.18-1.06,1.64-1.11,2.94,0.26L54.45,209.56z"></path> <path class="st1" d="M45.17,197.45c-2.25-3.34-6.49-4.41-10.43-1.75c-4.25,2.87-4.36,7.32-2.32,10.35 c2.04,3.03,6.22,4.59,10.46,1.73C46.82,205.12,47.42,200.79,45.17,197.45z M44.5,197.9c1.38,2.05,1.01,5.04-3.05,7.78 c-4.21,2.84-7.09,1.8-8.36-0.08c-1.27-1.88-1.16-4.94,3.05-7.78C40.21,195.07,43.12,195.85,44.5,197.9z"></path> <path class="st1" d="M19.97,183.18l2.29,4.71l0.38-0.19c-0.56-1.41-0.68-2.05,1.62-3.17l6.69-3.26l0.02,0.04l-5.89,12.36 l1.67,3.42l0.38-0.19c-0.39-0.8-0.45-1.17,0.15-2.48l8.83-4.31c2.16-1.05,2.67-0.78,3.51,0.69l0.38-0.19l-2.29-4.71l-0.38,0.19 c0.65,1.49,0.42,2.13-1.64,3.13l-7.81,3.81l-0.02-0.04l6.67-14.16l-0.17-0.34l-10.53,5.14c-2.34,1.14-2.74,0.54-3.49-0.65 L19.97,183.18z"></path> <path class="st1" d="M27.88,162.17c0.24,0.95,0.1,1.33-1.22,2.51l-10.32,9.18l0.14,0.42l11.83,1.03c1.06,0.1,2.82,0.25,3.51,0.57 c0.53,0.25,0.69,0.6,0.82,0.93l0.4-0.13l-1.36-4.19l-0.4,0.13c0.14,0.44,0.47,1.44-0.42,1.73c-0.23,0.08-0.55,0.11-0.86,0.09 l-2.8-0.17l-1.8-5.55l1.75-1.53c0.25-0.22,0.87-0.73,1.2-0.84c0.78-0.25,1.03,0.44,1.29,1.22l0.4-0.13l-1.76-5.4L27.88,162.17z M26.21,174.19l-6.62-0.54l5.03-4.35L26.21,174.19z"></path> <path class="st1" d="M12.46,157.29l0.98,6.2l0.42-0.07c-0.11-1.4-0.06-1.95,1.68-2.23l9.77-1.55c1.69-0.27,1.97,0.21,2.28,1.6 l0.42-0.07l-1.88-11.84l-4-0.45l0.09,0.55c3.08,0.8,3.39,2.19,3.91,5.49c0.29,1.83,0.33,2.23-0.55,2.37l-10.41,1.65 c-1.74,0.28-1.98-0.25-2.3-1.73L12.46,157.29z"></path> </g> </g> <path class="st17" d="M36.3,131.79c1.9-54.62,47.72-97.34,102.34-95.43c54.62,1.91,97.35,47.74,95.44,102.35 c-1.9,54.62-47.72,97.34-102.34,95.43C77.13,232.23,34.4,186.41,36.3,131.79z M32.32,131.63C34.31,74.8,81.98,30.35,138.8,32.34 c56.82,1.99,101.28,49.66,99.3,106.49c-1.98,56.82-49.65,101.28-106.48,99.29C74.8,236.13,30.34,188.45,32.32,131.63z"></path> <path class="st17" d="M4.7,130.65C7.21,58.56,67.68,2.17,139.77,4.7c72.08,2.52,128.48,63,125.97,135.09 c-2.51,72.08-62.98,128.47-135.07,125.95C58.59,263.21,2.19,202.73,4.7,130.65z M0.02,137.57C-1.29,62.9,58.18,1.32,132.85,0.02 c74.67-1.3,136.26,58.18,137.57,132.84c1.31,74.67-58.16,136.25-132.82,137.55C62.92,271.71,1.33,212.24,0.02,137.57z"></path> <path class="st18" d="M106.01,126.66c22.71-14.58,39.17-4.48,39.17-4.48s5.31,1.12,9.06,10.12c3.47,8.32-0.35,32.26-20.55,44.23 c-19.38,11.49-39.4,6.23-44.14-0.75c-4.74-6.98-6.21-17.75-2.91-26.17C88.14,145.81,89.27,137.41,106.01,126.66L106.01,126.66z"></path> <path class="st18" d="M133.6,176.17c-19.14,11.39-39.1,6.3-43.9-0.59c-4.79-6.88-6.17-17.65-2.89-26.02 c1.48-3.79,2.61-12.13,19.25-22.81c22.58-14.49,38.94-4.45,38.94-4.45s5.18,0.98,8.93,9.89 C157.35,140.32,153.78,164.16,133.6,176.17L133.6,176.17z"></path> <path class="st19" d="M133.51,175.79c-18.91,11.29-38.8,6.36-43.66-0.42c-4.85-6.77-6.13-17.54-2.87-25.86 c1.47-3.77,2.59-12.06,19.13-22.68c22.44-14.4,38.71-4.43,38.71-4.43s5.04,0.84,8.79,9.65C157,140.02,153.66,163.75,133.51,175.79 L133.51,175.79z"></path> <path class="st20" d="M133.43,175.42c-18.67,11.2-38.5,6.43-43.42-0.26c-4.91-6.67-6.09-17.44-2.85-25.71 c1.47-3.74,2.58-11.99,19.02-22.54c22.31-14.32,38.47-4.4,38.47-4.4s4.91,0.7,8.66,9.42C156.64,139.71,153.55,163.35,133.43,175.42 L133.43,175.42z"></path> <path class="st21" d="M133.34,175.05c-18.44,11.1-38.2,6.49-43.19-0.1c-4.96-6.56-6.06-17.33-2.84-25.55 c1.46-3.72,2.56-11.92,18.9-22.4c22.17-14.23,38.24-4.37,38.24-4.37s4.78,0.56,8.53,9.19C156.28,139.4,153.44,162.94,133.34,175.05 L133.34,175.05z"></path> <path class="st22" d="M133.25,174.68c-18.2,11-37.9,6.56-42.95,0.07c-5.02-6.46-6.02-17.22-2.82-25.4 c1.45-3.7,2.55-11.84,18.79-22.27c22.04-14.14,38.01-4.35,38.01-4.35s4.65,0.42,8.4,8.95C155.93,139.1,153.33,162.53,133.25,174.68 L133.25,174.68z"></path> <path class="st23" d="M133.16,174.3c-17.96,10.91-37.6,6.62-42.71,0.23c-5.07-6.35-5.98-17.12-2.8-25.24 c1.44-3.67,2.53-11.77,18.67-22.13c21.9-14.06,37.77-4.32,37.77-4.32s4.51,0.28,8.26,8.72 C155.57,138.79,153.21,162.12,133.16,174.3L133.16,174.3z"></path> <path class="st24" d="M133.08,173.93c-17.73,10.81-37.3,6.69-42.47,0.39c-5.13-6.25-5.95-17.01-2.78-25.08 c1.43-3.65,2.52-11.7,18.56-22c21.77-13.97,37.54-4.29,37.54-4.29s4.38,0.14,8.13,8.48C155.22,138.48,153.1,161.72,133.08,173.93 L133.08,173.93z"></path> <path class="st25" d="M106.43,127.32c21.63-13.88,37.31-4.27,37.31-4.27s4.25,0,8,8.25c3.12,6.87,1.25,30-18.75,42.25 c-17.49,10.71-37,6.75-42.23,0.55c-5.19-6.14-5.91-16.91-2.77-24.93C89.41,145.55,90.49,137.56,106.43,127.32L106.43,127.32z"></path> <path class="st25" d="M90.74,169.06c0,0-2.75-5.5-1.9-12.82c0.86-7.34,4.67-15.79,10.85-20.93c7.8-6.49,11.05-8.74,21.92-10.49 c11.7-1.88,15.62,3.83,16.87,5.88c0.8,1.29,3.09,5.92,1,9.62C129.74,156.31,108.16,167.9,90.74,169.06L90.74,169.06z"></path> <path class="st24" d="M90.8,168.68c0,0-2.63-5.49-1.78-12.72c0.85-7.25,4.82-15.64,10.92-20.72c7.7-6.41,10.97-8.57,21.71-10.3 c11.55-1.86,15.42,3.79,16.66,5.8c0.79,1.28,2.99,5.75,0.92,9.4C129.87,155.58,108,167.54,90.8,168.68L90.8,168.68z"></path> <path class="st23" d="M90.86,168.31c0,0-2.5-5.48-1.67-12.62c0.83-7.16,4.97-15.48,10.99-20.5c7.6-6.33,10.9-8.4,21.5-10.11 c11.4-1.84,15.22,3.74,16.45,5.73c0.78,1.26,2.88,5.57,0.84,9.18C130,154.84,107.85,167.18,90.86,168.31L90.86,168.31z"></path> <path class="st22" d="M90.93,167.93c0,0-2.38-5.47-1.56-12.51c0.82-7.07,5.12-15.33,11.06-20.28c7.51-6.25,10.82-8.23,21.29-9.91 c11.26-1.81,15.03,3.69,16.24,5.65c0.77,1.24,2.78,5.39,0.76,8.95C130.13,154.11,107.69,166.82,90.93,167.93L90.93,167.93z"></path> <path class="st21" d="M90.99,167.56c0,0-2.26-5.46-1.45-12.41c0.81-6.97,5.26-15.17,11.13-20.06c7.41-6.17,10.75-8.06,21.08-9.72 c11.11-1.79,14.83,3.64,16.03,5.58c0.76,1.23,2.67,5.21,0.68,8.73C130.25,153.38,107.54,166.46,90.99,167.56L90.99,167.56z"></path> <path class="st20" d="M91.05,167.18c0,0-2.14-5.44-1.34-12.31c0.8-6.88,5.41-15.02,11.2-19.84c7.31-6.09,10.67-7.89,20.87-9.53 c10.97-1.76,14.64,3.59,15.82,5.51c0.75,1.21,2.57,5.03,0.6,8.5C130.38,152.65,107.38,166.1,91.05,167.18L91.05,167.18z"></path> <path class="st19" d="M91.11,166.81c0,0-2.01-5.43-1.22-12.21c0.79-6.79,5.56-14.87,11.27-19.62c7.21-6.01,10.59-7.71,20.65-9.33 c10.82-1.74,14.44,3.55,15.61,5.43c0.74,1.19,2.46,4.86,0.53,8.28C130.51,151.92,107.23,165.74,91.11,166.81L91.11,166.81z"></path> <path class="st18" d="M91.18,166.43c0,0-1.89-5.42-1.11-12.1c0.78-6.7,5.71-14.71,11.34-19.4c7.12-5.93,10.52-7.54,20.44-9.14 c10.67-1.72,14.25,3.5,15.4,5.36c0.73,1.18,2.36,4.68,0.45,8.06C130.64,151.18,107.07,165.38,91.18,166.43L91.18,166.43z"></path> <path class="st26" d="M91.24,166.06c0,0-1.77-5.41-1-12c0.77-6.61,5.85-14.56,11.41-19.19c7.02-5.84,10.44-7.37,20.23-8.94 c10.53-1.69,14.05,3.45,15.19,5.29c0.72,1.16,2.25,4.5,0.37,7.83C130.77,150.45,106.91,165.02,91.24,166.06L91.24,166.06z"></path> <g> <path class="st27" d="M208.77,138.32c6.29,3.26,9.78,6.82,9.62,10.43c-0.51,11.67-38.98,19.47-85.93,17.42 c-31.66-1.38-59.08-6.89-73.44-13.92"></path> <path class="st6" d="M203.55,135.97c0.52-1.06,2.31-1.25,4-0.42c1.69,0.83,2.64,2.35,2.13,3.41c-0.52,1.06-2.31,1.25-4,0.42 C203.98,138.56,203.03,137.03,203.55,135.97z"></path> </g> <path class="st1" d="M142.03,105.29c6.49-1.91,18.9-6.93,19.32-7c-4.41,2.22-30.57,15.36-40.67,19.58 c-9.89,4.13-27.38,12.83-34.1,16.28c-6.72,3.45-11.75,6.16-20.62,11.61c-8.87,5.44-15.32,12.82-15.32,12.82l0.31,1.84 c0,0,4.98-5.03,11.83-9.68c7.33-4.98,13.67-8.29,22.39-12.82c8.71-4.52,22.66-11.38,25.38-12.53c2.72-1.14,18.85-7.9,26.07-11.74 c5.76-3.06,47.46-19.35,60.21-46.23c-13.06,14.13-25.8,19.66-32.37,22.95c-5.18,2.6-20.78,8.19-27.87,10.7 C138.58,102.43,139.65,103.28,142.03,105.29z"></path> </g> </svg> 